<svg width="185" height="304" viewBox="0 0 185 304" fill="none" xmlns="http://www.w3.org/2000/svg"><path opacity=".3" d="M81.45 36.1c-10.8 0-21 1.35-30.6 4.05-9.6 2.7-20.25 7.05-31.95 13.05L0 2.35c11.7-7.5 25.5-13.2 41.4-17.1 15.9-4.2 31.5-6.3 46.8-6.3 19.2 0 34.95 2.55 47.25 7.65 12.6 5.1 22.5 11.55 29.7 19.35 7.2 7.8 12.15 16.35 14.85 25.65 3 9.3 4.5 18.15 4.5 26.55 0 8.4-1.35 16.2-4.05 23.4-2.4 6.9-5.55 13.35-9.45 19.35-3.9 6-8.4 11.7-13.5 17.1-5.1 5.4-10.05 10.5-14.85 15.3-3.6 3.6-7.35 7.5-11.25 11.7-3.9 3.9-7.5 8.1-10.8 12.6-3 4.5-5.55 9.3-7.65 14.4-2.1 4.8-3.15 9.75-3.15 14.85v5.4c0 2.4.15 4.5.45 6.3h-59.4c-.6-3-1.05-6.3-1.35-9.9v-9.9c0-8.4 1.05-15.9 3.15-22.5 2.1-6.9 4.8-13.2 8.1-18.9 3.6-6 7.65-11.55 12.15-16.65 4.5-5.1 9.15-10.05 13.95-14.85 6.9-6.9 13.2-13.65 18.9-20.25 5.7-6.9 8.55-14.7 8.55-23.4 0-7.2-2.85-13.35-8.55-18.45-5.4-5.1-13.5-7.65-24.3-7.65zm41.85 226.35c0 13.2-4.35 23.4-13.05 30.6-8.4 7.2-18 10.8-28.8 10.8s-20.55-3.6-29.25-10.8c-8.4-7.2-12.6-17.4-12.6-30.6 0-13.2 4.2-23.4 12.6-30.6 8.7-7.2 18.45-10.8 29.25-10.8s20.4 3.6 28.8 10.8c8.7 7.2 13.05 17.4 13.05 30.6z" fill="#DC9"/></svg>