<?xml version="1.0" encoding="utf-8"?><svg width="40" height="67" fill="none" xmlns="http://www.w3.org/2000/svg" viewBox="0 0 40 67"><path fill="#fff" d="M0 0h40v67H0z"/><path fill-rule="evenodd" clip-rule="evenodd" d="M16.065 23.778c-.714-.72-1.184-1.383-1.464-2.244-.112-.341-.206-.632-.256-.985-.148-1.038-.097-2.015.294-3.01.63-1.598 1.706-2.63 3.27-3.268.394-.16.843-.262 1.248-.32.099-.015.139-.015.244-.027.75-.093 1.793.083 2.522.35.296.109.728.322 1.003.506 1.408.94 2.253 2.178 2.561 3.772.07.365.07.648.102 1.012l-.078.985a4.825 4.825 0 0 1-.267 1.013 5.73 5.73 0 0 1-.478 1.012c-.785 1.338-2.264 2.328-3.71 2.628-.167.034-.31.052-.489.078-.124.018-.128.012-.244.017-.578.02-.646.04-1.247-.045-1.001-.142-2.214-.67-3.01-1.474zm-3.449-10.857l.635-.64c1.008-1.015 2.45-1.733 3.465-2.074a9.596 9.596 0 0 1 1.736-.43c.738-.104.939-.104 1.708-.104 2.503 0 5 1.12 6.91 3.045l.02.02c.878.889 1.325 1.64 1.837 2.667.147.296.238.574.353.849l.367 1.286c.091.469.21 1.2.208 1.669v.41c0 .797-.025.917-.137 1.697-.04.279-.113.568-.191.848-.885 3.142-3.036 5.485-6.058 6.677-1.116.44-1.37.354-1.37 1.64l-.027 6.43c0 2.386.11 6.445.122 6.458.26.263 1.314.178 1.79.178h1.763c.78 0 2.014-.081 2.684.149a2.064 2.064 0 0 1 1.385 1.616l.033.355a2.866 2.866 0 0 1-.114.712c-.066.207-.2.474-.409.684-.634.64-1.09.752-1.925.752h-3.498l-1.302.027c-.677.017-.596.644-.434.808.232.234.809.144 1.085.149l.542.028c.544 0 1.15-.067 1.627.019 1.21.216 1.999 1.338 1.77 2.485-.127.63-.575 1.331-1.281 1.611-.58.23-1.256.154-1.845.154-2.24 0-2.009-.184-2.019 1.737 0 .143-.02.237-.029.383-.008.14-.037.24-.084.383-.51 1.55-2.488 1.848-3.425.905l-.01-.01c-.659-.667-.684-1.012-.684-1.907v-5.035c0-1.312.047-18.839-.009-19.29-.132-1.06-.233-.864-1.387-1.344-1.537-.639-2.387-1.173-3.661-2.459a9.002 9.002 0 0 1-1.29-1.696 8.98 8.98 0 0 1-.651-1.286c-.068-.16-.099-.259-.159-.41a7.769 7.769 0 0 1-.276-.849c-.045-.157-.07-.283-.102-.437-.034-.159-.063-.247-.086-.41-.097-.688-.216-1.447-.14-2.135.017-.149 0-.258.02-.41.148-1.158.109-1.198.55-2.545.299-.91 1.11-2.467 1.993-3.36z" fill="#F8F8F8"/></svg>