<svg width="19" height="49" viewBox="0 0 19 49" fill="none" xmlns="http://www.w3.org/2000/svg"><path fill-rule="evenodd" clip-rule="evenodd" d="M6.21 15.025c-.714-.72-1.184-1.383-1.464-2.243-.112-.342-.206-.633-.257-.985-.148-1.039-.096-2.016.295-3.01.63-1.599 1.705-2.631 3.27-3.268.394-.16.842-.262 1.248-.32.098-.015.138-.015.244-.028.75-.093 1.793.083 2.522.35a5.52 5.52 0 0 1 1.003.506c1.408.94 2.253 2.179 2.56 3.772.071.365.07.649.103 1.013l-.078.985a4.819 4.819 0 0 1-.268 1.012 5.8 5.8 0 0 1-.477 1.013c-.785 1.337-2.264 2.328-3.711 2.627-.167.034-.31.052-.488.078-.124.018-.128.013-.244.017-.579.021-.646.04-1.248-.045-1-.142-2.214-.67-3.01-1.474zM2.76 4.168l.636-.64c1.008-1.015 2.45-1.733 3.465-2.074a9.597 9.597 0 0 1 1.735-.43c.738-.104.94-.103 1.709-.103 2.502 0 4.999 1.12 6.91 3.045l.019.02c.878.888 1.326 1.64 1.838 2.667.147.296.237.573.352.848l.367 1.286c.092.469.211 1.2.209 1.669v.41c0 .798-.026.917-.137 1.697a6.69 6.69 0 0 1-.192.848c-.884 3.143-3.035 5.485-6.057 6.678-1.116.44-1.37.354-1.37 1.64l-.027 6.43c0 2.385.109 6.444.122 6.457.26.263 1.314.178 1.79.178h1.763c.78 0 2.014-.081 2.684.15a2.064 2.064 0 0 1 1.385 1.615l.033.355a2.883 2.883 0 0 1-.114.712c-.067.208-.2.474-.409.684-.635.64-1.09.752-1.925.752h-3.499l-1.301.027c-.678.018-.596.645-.434.808.232.234.808.144 1.085.15l.542.028c.544 0 1.15-.068 1.627.018 1.21.216 1.998 1.339 1.769 2.485-.126.63-.574 1.331-1.28 1.612-.58.23-1.257.153-1.845.153-2.24 0-2.01-.184-2.02 1.738 0 .142-.02.236-.028.383-.009.14-.037.24-.084.383-.51 1.549-2.488 1.847-3.426.904l-.009-.01c-.659-.666-.684-1.012-.684-1.907V40.8c0-1.313.047-18.84-.009-19.29-.132-1.06-.234-.865-1.387-1.345-1.538-.639-2.388-1.173-3.661-2.458A8.999 8.999 0 0 1 1.61 16.01a8.995 8.995 0 0 1-.65-1.286c-.068-.159-.1-.259-.159-.41a7.766 7.766 0 0 1-.276-.848c-.045-.158-.07-.284-.103-.438-.034-.158-.063-.247-.086-.41-.096-.687-.215-1.447-.14-2.135.017-.149 0-.257.02-.41.149-1.158.11-1.198.551-2.545.299-.91 1.11-2.466 1.993-3.36z" fill="#F8F8F8"/></svg>